<?xml version="1.0" encoding="UTF-8" standalone="no"?>
<!DOCTYPE svg PUBLIC "-//W3C//DTD SVG 1.1//EN"
 "http://www.w3.org/Graphics/SVG/1.1/DTD/svg11.dtd">
<!-- Generated by graphviz version 2.38.0 (20140413.2041)
 -->
<!-- Title: G Pages: 1 -->
<svg width="632pt" height="484pt"
 viewBox="0.00 0.00 631.50 484.00" xmlns="http://www.w3.org/2000/svg" xmlns:xlink="http://www.w3.org/1999/xlink">
<g id="graph0" class="graph" transform="scale(1 1) rotate(0) translate(4 480)">
<title>G</title>
<polygon fill="white" stroke="none" points="-4,4 -4,-480 627.5,-480 627.5,4 -4,4"/>
<!-- gemstracker/new&#45;project -->
<g id="node1" class="node"><title>gemstracker/new&#45;project</title>
<path fill="#eeeeee" stroke="black" stroke-width="2" d="M406,-476C406,-476 276,-476 276,-476 270,-476 264,-470 264,-464 264,-464 264,-452 264,-452 264,-446 270,-440 276,-440 276,-440 406,-440 406,-440 412,-440 418,-446 418,-452 418,-452 418,-464 418,-464 418,-470 412,-476 406,-476"/>
<text text-anchor="middle" x="341" y="-454.3" font-family="Times New Roman,serif" font-size="14.00" fill="#314b5f">gemstracker/new&#45;project</text>
</g>
<!-- php -->
<g id="node2" class="node"><title>php</title>
<path fill="#eeeeee" stroke="black" d="M164,-36C164,-36 134,-36 134,-36 128,-36 122,-30 122,-24 122,-24 122,-12 122,-12 122,-6 128,-0 134,-0 134,-0 164,-0 164,-0 170,-0 176,-6 176,-12 176,-12 176,-24 176,-24 176,-30 170,-36 164,-36"/>
<text text-anchor="middle" x="149" y="-14.3" font-family="Times New Roman,serif" font-size="14.00" fill="#314b5f">php</text>
</g>
<!-- gemstracker/new&#45;project&#45;&gt;php -->
<g id="edge1" class="edge"><title>gemstracker/new&#45;project&#45;&gt;php</title>
<path fill="none" stroke="#1a2833" d="M263.622,-454.005C163.013,-447.958 0,-429.851 0,-376 0,-376 0,-376 0,-100 0,-49.3 67.4138,-30.1577 111.551,-23.0581"/>
<polygon fill="#1a2833" stroke="#1a2833" points="112.285,-26.4879 121.671,-21.5727 111.269,-19.5621 112.285,-26.4879"/>
<text text-anchor="middle" x="14.5" y="-223" font-family="Times New Roman,serif" font-size="10.00" fill="#767676">&gt;=5.3.9</text>
</g>
<!-- gemstracker/gemstracker -->
<g id="node3" class="node"><title>gemstracker/gemstracker</title>
<path fill="#eeeeee" stroke="black" d="M240,-393C240,-393 40,-393 40,-393 34,-393 28,-387 28,-381 28,-381 28,-369 28,-369 28,-363 34,-357 40,-357 40,-357 240,-357 240,-357 246,-357 252,-363 252,-369 252,-369 252,-381 252,-381 252,-387 246,-393 240,-393"/>
<text text-anchor="middle" x="140" y="-371.3" font-family="Times New Roman,serif" font-size="14.00" fill="#314b5f">gemstracker/gemstracker: dev&#45;master</text>
</g>
<!-- gemstracker/new&#45;project&#45;&gt;gemstracker/gemstracker -->
<g id="edge2" class="edge"><title>gemstracker/new&#45;project&#45;&gt;gemstracker/gemstracker</title>
<path fill="none" stroke="#1a2833" d="M298.373,-439.822C267.222,-427.269 224.819,-410.181 191.728,-396.846"/>
<polygon fill="#1a2833" stroke="#1a2833" points="192.804,-393.506 182.22,-393.014 190.187,-399.998 192.804,-393.506"/>
<text text-anchor="middle" x="275.5" y="-414" font-family="Times New Roman,serif" font-size="10.00" fill="#767676">dev&#45;master</text>
</g>
<!-- gemstracker/gemstracker&#45;template -->
<g id="node4" class="node"><title>gemstracker/gemstracker&#45;template</title>
<path fill="#eeeeee" stroke="black" d="M533.5,-393C533.5,-393 282.5,-393 282.5,-393 276.5,-393 270.5,-387 270.5,-381 270.5,-381 270.5,-369 270.5,-369 270.5,-363 276.5,-357 282.5,-357 282.5,-357 533.5,-357 533.5,-357 539.5,-357 545.5,-363 545.5,-369 545.5,-369 545.5,-381 545.5,-381 545.5,-387 539.5,-393 533.5,-393"/>
<text text-anchor="middle" x="408" y="-371.3" font-family="Times New Roman,serif" font-size="14.00" fill="#314b5f">gemstracker/gemstracker&#45;template: dev&#45;master</text>
</g>
<!-- gemstracker/new&#45;project&#45;&gt;gemstracker/gemstracker&#45;template -->
<g id="edge3" class="edge"><title>gemstracker/new&#45;project&#45;&gt;gemstracker/gemstracker&#45;template</title>
<path fill="none" stroke="#1a2833" d="M355.209,-439.822C364.536,-428.546 376.89,-413.611 387.301,-401.024"/>
<polygon fill="#1a2833" stroke="#1a2833" points="390.135,-403.09 393.812,-393.153 384.741,-398.628 390.135,-403.09"/>
<text text-anchor="middle" x="401.5" y="-414" font-family="Times New Roman,serif" font-size="10.00" fill="#767676">dev&#45;master</text>
</g>
<!-- phing/phing -->
<g id="node5" class="node"><title>phing/phing</title>
<path fill="#eeeeee" stroke="black" d="M611.5,-339C611.5,-339 512.5,-339 512.5,-339 506.5,-339 500.5,-333 500.5,-327 500.5,-327 500.5,-315 500.5,-315 500.5,-309 506.5,-303 512.5,-303 512.5,-303 611.5,-303 611.5,-303 617.5,-303 623.5,-309 623.5,-315 623.5,-315 623.5,-327 623.5,-327 623.5,-333 617.5,-339 611.5,-339"/>
<text text-anchor="middle" x="562" y="-317.3" font-family="Times New Roman,serif" font-size="14.00" fill="#314b5f">phing/phing: 2.13.0</text>
</g>
<!-- gemstracker/new&#45;project&#45;&gt;phing/phing -->
<g id="edge4" class="edge"><title>gemstracker/new&#45;project&#45;&gt;phing/phing</title>
<path fill="none" stroke="#1a2833" d="M418.229,-454.539C465.083,-448.699 522.016,-433.027 555,-393 564.888,-381.001 566.762,-363.697 566.104,-349.177"/>
<polygon fill="#1a2833" stroke="#1a2833" points="569.591,-348.878 565.255,-339.211 562.616,-349.472 569.591,-348.878"/>
<text text-anchor="middle" x="543.5" y="-414" font-family="Times New Roman,serif" font-size="10.00" fill="#767676">^2.11</text>
</g>
<!-- gemstracker/gemstracker&#45;&gt;php -->
<g id="edge14" class="edge"><title>gemstracker/gemstracker&#45;&gt;php</title>
<path fill="none" stroke="#1a2833" d="M109.999,-356.893C82.4896,-338.725 46,-307.231 46,-268 46,-268 46,-268 46,-100 46,-65.2544 82.6632,-43.1363 112.242,-30.9459"/>
<polygon fill="#1a2833" stroke="#1a2833" points="113.878,-34.0654 121.938,-27.1885 111.349,-27.5384 113.878,-34.0654"/>
<text text-anchor="middle" x="60.5" y="-181.5" font-family="Times New Roman,serif" font-size="10.00" fill="#767676">&gt;=5.3.9</text>
</g>
<!-- magnafacta/mutil -->
<g id="node8" class="node"><title>magnafacta/mutil</title>
<path fill="#eeeeee" stroke="black" d="M241.5,-285C241.5,-285 86.5,-285 86.5,-285 80.5,-285 74.5,-279 74.5,-273 74.5,-273 74.5,-261 74.5,-261 74.5,-255 80.5,-249 86.5,-249 86.5,-249 241.5,-249 241.5,-249 247.5,-249 253.5,-255 253.5,-261 253.5,-261 253.5,-273 253.5,-273 253.5,-279 247.5,-285 241.5,-285"/>
<text text-anchor="middle" x="164" y="-263.3" font-family="Times New Roman,serif" font-size="14.00" fill="#314b5f">magnafacta/mutil: dev&#45;master</text>
</g>
<!-- gemstracker/gemstracker&#45;&gt;magnafacta/mutil -->
<g id="edge13" class="edge"><title>gemstracker/gemstracker&#45;&gt;magnafacta/mutil</title>
<path fill="none" stroke="#1a2833" d="M143.856,-356.969C147.63,-340.301 153.439,-314.646 157.85,-295.161"/>
<polygon fill="#1a2833" stroke="#1a2833" points="161.279,-295.867 160.074,-285.341 154.452,-294.321 161.279,-295.867"/>
<text text-anchor="middle" x="178.5" y="-318.5" font-family="Times New Roman,serif" font-size="10.00" fill="#767676">dev&#45;master</text>
</g>
<!-- ext&#45;mcrypt -->
<g id="node9" class="node"><title>ext&#45;mcrypt</title>
<path fill="#eeeeee" stroke="black" d="M480.5,-202C480.5,-202 427.5,-202 427.5,-202 421.5,-202 415.5,-196 415.5,-190 415.5,-190 415.5,-178 415.5,-178 415.5,-172 421.5,-166 427.5,-166 427.5,-166 480.5,-166 480.5,-166 486.5,-166 492.5,-172 492.5,-178 492.5,-178 492.5,-190 492.5,-190 492.5,-196 486.5,-202 480.5,-202"/>
<text text-anchor="middle" x="454" y="-180.3" font-family="Times New Roman,serif" font-size="14.00" fill="#314b5f">ext&#45;mcrypt</text>
</g>
<!-- gemstracker/gemstracker&#45;&gt;ext&#45;mcrypt -->
<g id="edge12" class="edge"><title>gemstracker/gemstracker&#45;&gt;ext&#45;mcrypt</title>
<path fill="none" stroke="#1a2833" d="M172.613,-356.932C183.034,-351.347 194.568,-345.027 205,-339 282.478,-294.235 371.147,-238.212 418.977,-207.584"/>
<polygon fill="#1a2833" stroke="#1a2833" points="420.892,-210.513 427.421,-202.169 417.113,-204.621 420.892,-210.513"/>
<text text-anchor="middle" x="355" y="-264.5" font-family="Times New Roman,serif" font-size="10.00" fill="#767676">*</text>
</g>
<!-- phing/phing&#45;&gt;php -->
<g id="edge15" class="edge"><title>phing/phing&#45;&gt;php</title>
<path fill="none" stroke="#1a2833" d="M555.399,-302.709C548.919,-284.155 540,-253.682 540,-226.5 540,-226.5 540,-226.5 540,-100 540,-28.1811 283.86,-19.5569 186.207,-18.8787"/>
<polygon fill="#1a2833" stroke="#1a2833" points="186.2,-15.3787 176.184,-18.8335 186.168,-22.3787 186.2,-15.3787"/>
<text text-anchor="middle" x="554.5" y="-181.5" font-family="Times New Roman,serif" font-size="10.00" fill="#767676">&gt;=5.2.0</text>
</g>
<!-- zendframework/zendframework1 -->
<g id="node6" class="node"><title>zendframework/zendframework1</title>
<path fill="#eeeeee" stroke="black" d="M367,-119C367,-119 143,-119 143,-119 137,-119 131,-113 131,-107 131,-107 131,-95 131,-95 131,-89 137,-83 143,-83 143,-83 367,-83 367,-83 373,-83 379,-89 379,-95 379,-95 379,-107 379,-107 379,-113 373,-119 367,-119"/>
<text text-anchor="middle" x="255" y="-97.3" font-family="Times New Roman,serif" font-size="14.00" fill="#314b5f">zendframework/zendframework1: 1.12.17</text>
</g>
<!-- zendframework/zendframework1&#45;&gt;php -->
<g id="edge5" class="edge"><title>zendframework/zendframework1&#45;&gt;php</title>
<path fill="none" stroke="#1a2833" d="M232.52,-82.822C217.061,-71.009 196.347,-55.1805 179.416,-42.2423"/>
<polygon fill="#1a2833" stroke="#1a2833" points="181.518,-39.444 171.447,-36.1533 177.268,-45.006 181.518,-39.444"/>
<text text-anchor="middle" x="226" y="-57" font-family="Times New Roman,serif" font-size="10.00" fill="#767676">&gt;=5.2.11</text>
</g>
<!-- zendframework/zf1&#45;extras -->
<g id="node7" class="node"><title>zendframework/zf1&#45;extras</title>
<path fill="#eeeeee" stroke="black" d="M385.5,-202C385.5,-202 200.5,-202 200.5,-202 194.5,-202 188.5,-196 188.5,-190 188.5,-190 188.5,-178 188.5,-178 188.5,-172 194.5,-166 200.5,-166 200.5,-166 385.5,-166 385.5,-166 391.5,-166 397.5,-172 397.5,-178 397.5,-178 397.5,-190 397.5,-190 397.5,-196 391.5,-202 385.5,-202"/>
<text text-anchor="middle" x="293" y="-180.3" font-family="Times New Roman,serif" font-size="14.00" fill="#314b5f">zendframework/zf1&#45;extras: 1.12.16</text>
</g>
<!-- zendframework/zf1&#45;extras&#45;&gt;php -->
<g id="edge6" class="edge"><title>zendframework/zf1&#45;extras&#45;&gt;php</title>
<path fill="none" stroke="#1a2833" d="M329.597,-165.958C365.637,-146.826 412.056,-114.345 388,-83 363.525,-51.1092 247.078,-31.6395 186.232,-23.4755"/>
<polygon fill="#1a2833" stroke="#1a2833" points="186.627,-19.9975 176.258,-22.1719 185.72,-26.9385 186.627,-19.9975"/>
<text text-anchor="middle" x="412" y="-98.5" font-family="Times New Roman,serif" font-size="10.00" fill="#767676">&gt;=5.2.11</text>
</g>
<!-- zendframework/zf1&#45;extras&#45;&gt;zendframework/zendframework1 -->
<g id="edge7" class="edge"><title>zendframework/zf1&#45;extras&#45;&gt;zendframework/zendframework1</title>
<path fill="none" stroke="#1a2833" d="M284.941,-165.822C279.853,-154.976 273.176,-140.744 267.419,-128.472"/>
<polygon fill="#1a2833" stroke="#1a2833" points="270.463,-126.72 263.047,-119.153 264.126,-129.693 270.463,-126.72"/>
<text text-anchor="middle" x="289" y="-140" font-family="Times New Roman,serif" font-size="10.00" fill="#767676">1.12.*</text>
</g>
<!-- magnafacta/mutil&#45;&gt;php -->
<g id="edge9" class="edge"><title>magnafacta/mutil&#45;&gt;php</title>
<path fill="none" stroke="#1a2833" d="M155.111,-248.908C139.42,-216.609 109.59,-144.343 122,-83 124.608,-70.1098 129.893,-56.5877 135.102,-45.3113"/>
<polygon fill="#1a2833" stroke="#1a2833" points="138.378,-46.5774 139.591,-36.0522 132.079,-43.5239 138.378,-46.5774"/>
<text text-anchor="middle" x="136.5" y="-140" font-family="Times New Roman,serif" font-size="10.00" fill="#767676">&gt;=5.3.9</text>
</g>
<!-- magnafacta/mutil&#45;&gt;zendframework/zendframework1 -->
<g id="edge10" class="edge"><title>magnafacta/mutil&#45;&gt;zendframework/zendframework1</title>
<path fill="none" stroke="#1a2833" d="M157.793,-248.909C151.316,-228.009 143.904,-192.188 158,-166 167.731,-147.922 185.053,-134.103 202.393,-124.014"/>
<polygon fill="#1a2833" stroke="#1a2833" points="204.328,-126.945 211.422,-119.076 200.969,-120.804 204.328,-126.945"/>
<text text-anchor="middle" x="168.5" y="-181.5" font-family="Times New Roman,serif" font-size="10.00" fill="#767676">^1.12</text>
</g>
<!-- magnafacta/mutil&#45;&gt;zendframework/zf1&#45;extras -->
<g id="edge11" class="edge"><title>magnafacta/mutil&#45;&gt;zendframework/zf1&#45;extras</title>
<path fill="none" stroke="#1a2833" d="M191.358,-248.822C210.513,-236.794 236.298,-220.604 257.104,-207.539"/>
<polygon fill="#1a2833" stroke="#1a2833" points="259.074,-210.435 265.682,-202.153 255.352,-204.507 259.074,-210.435"/>
<text text-anchor="middle" x="247.5" y="-223" font-family="Times New Roman,serif" font-size="10.00" fill="#767676">^1.12</text>
</g>
<!-- magnafacta/mutil&#45;&gt;ext&#45;mcrypt -->
<g id="edge8" class="edge"><title>magnafacta/mutil&#45;&gt;ext&#45;mcrypt</title>
<path fill="none" stroke="#1a2833" d="M210.179,-248.983C237.239,-239.477 272.239,-227.977 304,-220 345.77,-209.509 359.697,-213.155 405.467,-201.849"/>
<polygon fill="#1a2833" stroke="#1a2833" points="406.589,-205.174 415.399,-199.29 404.842,-198.396 406.589,-205.174"/>
<text text-anchor="middle" x="307" y="-223" font-family="Times New Roman,serif" font-size="10.00" fill="#767676">*</text>
</g>
</g>
</svg>
