<?xml version="1.0" encoding="UTF-8" standalone="no"?>
<!DOCTYPE svg PUBLIC "-//W3C//DTD SVG 1.1//EN"
 "http://www.w3.org/Graphics/SVG/1.1/DTD/svg11.dtd">
<!-- Generated by graphviz version 2.38.0 (20140413.2041)
 -->
<!-- Title: G Pages: 1 -->
<svg width="893pt" height="509pt"
 viewBox="0.00 0.00 892.50 509.00" xmlns="http://www.w3.org/2000/svg" xmlns:xlink="http://www.w3.org/1999/xlink">
<g id="graph0" class="graph" transform="scale(1 1) rotate(0) translate(4 505)">
<title>G</title>
<polygon fill="white" stroke="none" points="-4,4 -4,-505 888.5,-505 888.5,4 -4,4"/>
<!-- gemstracker/new&#45;project -->
<g id="node1" class="node"><title>gemstracker/new&#45;project</title>
<path fill="#eeeeee" stroke="black" stroke-width="2" d="M440,-501C440,-501 310,-501 310,-501 304,-501 298,-495 298,-489 298,-489 298,-477 298,-477 298,-471 304,-465 310,-465 310,-465 440,-465 440,-465 446,-465 452,-471 452,-477 452,-477 452,-489 452,-489 452,-495 446,-501 440,-501"/>
<text text-anchor="middle" x="375" y="-479.3" font-family="Times New Roman,serif" font-size="14.00" fill="#314b5f">gemstracker/new&#45;project</text>
</g>
<!-- php -->
<g id="node2" class="node"><title>php</title>
<path fill="#eeeeee" stroke="black" d="M324,-36C324,-36 294,-36 294,-36 288,-36 282,-30 282,-24 282,-24 282,-12 282,-12 282,-6 288,-0 294,-0 294,-0 324,-0 324,-0 330,-0 336,-6 336,-12 336,-12 336,-24 336,-24 336,-30 330,-36 324,-36"/>
<text text-anchor="middle" x="309" y="-14.3" font-family="Times New Roman,serif" font-size="14.00" fill="#314b5f">php</text>
</g>
<!-- gemstracker/new&#45;project&#45;&gt;php -->
<g id="edge1" class="edge"><title>gemstracker/new&#45;project&#45;&gt;php</title>
<path fill="none" stroke="#1a2833" d="M297.754,-480.754C187.978,-476.853 0,-461.361 0,-401 0,-401 0,-401 0,-100 0,-44.4132 189.473,-26.2142 271.682,-20.9341"/>
<polygon fill="#1a2833" stroke="#1a2833" points="272.082,-24.4163 281.849,-20.3122 271.654,-17.4293 272.082,-24.4163"/>
<text text-anchor="middle" x="14.5" y="-248" font-family="Times New Roman,serif" font-size="10.00" fill="#767676">&gt;=5.3.9</text>
</g>
<!-- gemstracker/gemstracker -->
<g id="node3" class="node"><title>gemstracker/gemstracker</title>
<path fill="#eeeeee" stroke="black" d="M224,-418C224,-418 58,-418 58,-418 52,-418 46,-412 46,-406 46,-406 46,-394 46,-394 46,-388 52,-382 58,-382 58,-382 224,-382 224,-382 230,-382 236,-388 236,-394 236,-394 236,-406 236,-406 236,-412 230,-418 224,-418"/>
<text text-anchor="middle" x="141" y="-396.3" font-family="Times New Roman,serif" font-size="14.00" fill="#314b5f">gemstracker/gemstracker: 1.7.2</text>
</g>
<!-- gemstracker/new&#45;project&#45;&gt;gemstracker/gemstracker -->
<g id="edge2" class="edge"><title>gemstracker/new&#45;project&#45;&gt;gemstracker/gemstracker</title>
<path fill="none" stroke="#1a2833" d="M325.661,-464.921C288.948,-452.213 238.693,-434.817 199.878,-421.381"/>
<polygon fill="#1a2833" stroke="#1a2833" points="200.867,-418.019 190.272,-418.056 198.577,-424.634 200.867,-418.019"/>
<text text-anchor="middle" x="282.5" y="-439" font-family="Times New Roman,serif" font-size="10.00" fill="#767676">1.7.2</text>
</g>
<!-- gemstracker/gemstracker&#45;template -->
<g id="node4" class="node"><title>gemstracker/gemstracker&#45;template</title>
<path fill="#eeeeee" stroke="black" d="M483.5,-418C483.5,-418 266.5,-418 266.5,-418 260.5,-418 254.5,-412 254.5,-406 254.5,-406 254.5,-394 254.5,-394 254.5,-388 260.5,-382 266.5,-382 266.5,-382 483.5,-382 483.5,-382 489.5,-382 495.5,-388 495.5,-394 495.5,-394 495.5,-406 495.5,-406 495.5,-412 489.5,-418 483.5,-418"/>
<text text-anchor="middle" x="375" y="-396.3" font-family="Times New Roman,serif" font-size="14.00" fill="#314b5f">gemstracker/gemstracker&#45;template: 1.7.2</text>
</g>
<!-- gemstracker/new&#45;project&#45;&gt;gemstracker/gemstracker&#45;template -->
<g id="edge3" class="edge"><title>gemstracker/new&#45;project&#45;&gt;gemstracker/gemstracker&#45;template</title>
<path fill="none" stroke="#1a2833" d="M375,-464.822C375,-454.19 375,-440.306 375,-428.204"/>
<polygon fill="#1a2833" stroke="#1a2833" points="378.5,-428.153 375,-418.153 371.5,-428.153 378.5,-428.153"/>
<text text-anchor="middle" x="384.5" y="-439" font-family="Times New Roman,serif" font-size="10.00" fill="#767676">1.7.2</text>
</g>
<!-- gemstracker/gemstracker&#45;responsive&#45;template -->
<g id="node5" class="node"><title>gemstracker/gemstracker&#45;responsive&#45;template</title>
<path fill="#eeeeee" stroke="black" d="M806.5,-418C806.5,-418 525.5,-418 525.5,-418 519.5,-418 513.5,-412 513.5,-406 513.5,-406 513.5,-394 513.5,-394 513.5,-388 519.5,-382 525.5,-382 525.5,-382 806.5,-382 806.5,-382 812.5,-382 818.5,-388 818.5,-394 818.5,-394 818.5,-406 818.5,-406 818.5,-412 812.5,-418 806.5,-418"/>
<text text-anchor="middle" x="666" y="-396.3" font-family="Times New Roman,serif" font-size="14.00" fill="#314b5f">gemstracker/gemstracker&#45;responsive&#45;template: 1.7.2</text>
</g>
<!-- gemstracker/new&#45;project&#45;&gt;gemstracker/gemstracker&#45;responsive&#45;template -->
<g id="edge4" class="edge"><title>gemstracker/new&#45;project&#45;&gt;gemstracker/gemstracker&#45;responsive&#45;template</title>
<path fill="none" stroke="#1a2833" d="M436.358,-464.921C482.691,-452.024 546.367,-434.3 594.918,-420.786"/>
<polygon fill="#1a2833" stroke="#1a2833" points="596.031,-424.109 604.726,-418.056 594.154,-417.365 596.031,-424.109"/>
<text text-anchor="middle" x="547.5" y="-439" font-family="Times New Roman,serif" font-size="10.00" fill="#767676">1.7.2</text>
</g>
<!-- phing/phing -->
<g id="node6" class="node"><title>phing/phing</title>
<path fill="#eeeeee" stroke="black" d="M872.5,-364C872.5,-364 773.5,-364 773.5,-364 767.5,-364 761.5,-358 761.5,-352 761.5,-352 761.5,-340 761.5,-340 761.5,-334 767.5,-328 773.5,-328 773.5,-328 872.5,-328 872.5,-328 878.5,-328 884.5,-334 884.5,-340 884.5,-340 884.5,-352 884.5,-352 884.5,-358 878.5,-364 872.5,-364"/>
<text text-anchor="middle" x="823" y="-342.3" font-family="Times New Roman,serif" font-size="14.00" fill="#314b5f">phing/phing: 2.14.0</text>
</g>
<!-- gemstracker/new&#45;project&#45;&gt;phing/phing -->
<g id="edge5" class="edge"><title>gemstracker/new&#45;project&#45;&gt;phing/phing</title>
<path fill="none" stroke="#1a2833" d="M452.226,-482.716C568.334,-481.956 779.387,-472.83 827,-418 837.326,-406.109 836.368,-388.439 832.808,-373.703"/>
<polygon fill="#1a2833" stroke="#1a2833" points="836.166,-372.716 830.034,-364.076 829.44,-374.654 836.166,-372.716"/>
<text text-anchor="middle" x="809.5" y="-439" font-family="Times New Roman,serif" font-size="10.00" fill="#767676">^2.11</text>
</g>
<!-- gemstracker/gemstracker&#45;&gt;php -->
<g id="edge21" class="edge"><title>gemstracker/gemstracker&#45;&gt;php</title>
<path fill="none" stroke="#1a2833" d="M110.68,-381.972C82.8778,-363.864 46,-332.416 46,-293 46,-293 46,-293 46,-100 46,-53.3249 199.209,-30.7129 271.755,-22.6222"/>
<polygon fill="#1a2833" stroke="#1a2833" points="272.278,-26.086 281.845,-21.5327 271.527,-19.1265 272.278,-26.086"/>
<text text-anchor="middle" x="60.5" y="-206.5" font-family="Times New Roman,serif" font-size="10.00" fill="#767676">&gt;=5.3.9</text>
</g>
<!-- phpoffice/phpexcel -->
<g id="node10" class="node"><title>phpoffice/phpexcel</title>
<path fill="#eeeeee" stroke="black" d="M224.5,-310C224.5,-310 89.5,-310 89.5,-310 83.5,-310 77.5,-304 77.5,-298 77.5,-298 77.5,-286 77.5,-286 77.5,-280 83.5,-274 89.5,-274 89.5,-274 224.5,-274 224.5,-274 230.5,-274 236.5,-280 236.5,-286 236.5,-286 236.5,-298 236.5,-298 236.5,-304 230.5,-310 224.5,-310"/>
<text text-anchor="middle" x="157" y="-288.3" font-family="Times New Roman,serif" font-size="14.00" fill="#314b5f">phpoffice/phpexcel: 1.8.1</text>
</g>
<!-- gemstracker/gemstracker&#45;&gt;phpoffice/phpexcel -->
<g id="edge22" class="edge"><title>gemstracker/gemstracker&#45;&gt;phpoffice/phpexcel</title>
<path fill="none" stroke="#1a2833" d="M143.571,-381.969C146.075,-365.378 149.923,-339.883 152.86,-320.431"/>
<polygon fill="#1a2833" stroke="#1a2833" points="156.351,-320.751 154.383,-310.341 149.429,-319.706 156.351,-320.751"/>
<text text-anchor="middle" x="161.5" y="-343.5" font-family="Times New Roman,serif" font-size="10.00" fill="#767676">1.8.1</text>
</g>
<!-- magnafacta/mutil -->
<g id="node13" class="node"><title>magnafacta/mutil</title>
<path fill="#eeeeee" stroke="black" d="M476.5,-310C476.5,-310 355.5,-310 355.5,-310 349.5,-310 343.5,-304 343.5,-298 343.5,-298 343.5,-286 343.5,-286 343.5,-280 349.5,-274 355.5,-274 355.5,-274 476.5,-274 476.5,-274 482.5,-274 488.5,-280 488.5,-286 488.5,-286 488.5,-298 488.5,-298 488.5,-304 482.5,-310 476.5,-310"/>
<text text-anchor="middle" x="416" y="-288.3" font-family="Times New Roman,serif" font-size="14.00" fill="#314b5f">magnafacta/mutil: 1.7.2</text>
</g>
<!-- gemstracker/gemstracker&#45;&gt;magnafacta/mutil -->
<g id="edge20" class="edge"><title>gemstracker/gemstracker&#45;&gt;magnafacta/mutil</title>
<path fill="none" stroke="#1a2833" d="M185.184,-381.969C233.352,-363.403 310.448,-333.685 362.129,-313.765"/>
<polygon fill="#1a2833" stroke="#1a2833" points="363.398,-317.027 371.47,-310.164 360.881,-310.495 363.398,-317.027"/>
<text text-anchor="middle" x="329.5" y="-343.5" font-family="Times New Roman,serif" font-size="10.00" fill="#767676">1.7.2</text>
</g>
<!-- ext&#45;mcrypt -->
<g id="node14" class="node"><title>ext&#45;mcrypt</title>
<path fill="#eeeeee" stroke="black" d="M745.5,-227C745.5,-227 692.5,-227 692.5,-227 686.5,-227 680.5,-221 680.5,-215 680.5,-215 680.5,-203 680.5,-203 680.5,-197 686.5,-191 692.5,-191 692.5,-191 745.5,-191 745.5,-191 751.5,-191 757.5,-197 757.5,-203 757.5,-203 757.5,-215 757.5,-215 757.5,-221 751.5,-227 745.5,-227"/>
<text text-anchor="middle" x="719" y="-205.3" font-family="Times New Roman,serif" font-size="14.00" fill="#314b5f">ext&#45;mcrypt</text>
</g>
<!-- gemstracker/gemstracker&#45;&gt;ext&#45;mcrypt -->
<g id="edge19" class="edge"><title>gemstracker/gemstracker&#45;&gt;ext&#45;mcrypt</title>
<path fill="none" stroke="#1a2833" d="M236.204,-383.026C283.176,-375.049 332.107,-366.559 343,-364 506.446,-325.601 585.953,-374.394 705,-256 710.09,-250.938 713.341,-244.085 715.413,-237.217"/>
<polygon fill="#1a2833" stroke="#1a2833" points="718.852,-237.879 717.682,-227.349 712.03,-236.31 718.852,-237.879"/>
<text text-anchor="middle" x="689" y="-289.5" font-family="Times New Roman,serif" font-size="10.00" fill="#767676">*</text>
</g>
<!-- phing/phing&#45;&gt;php -->
<g id="edge9" class="edge"><title>phing/phing&#45;&gt;php</title>
<path fill="none" stroke="#1a2833" d="M818.581,-327.899C814.156,-309.251 808,-278.462 808,-251.5 808,-251.5 808,-251.5 808,-100 808,-53.2433 462.238,-28.2026 346.347,-21.1227"/>
<polygon fill="#1a2833" stroke="#1a2833" points="346.375,-17.6182 336.183,-20.5121 345.955,-24.6056 346.375,-17.6182"/>
<text text-anchor="middle" x="822.5" y="-206.5" font-family="Times New Roman,serif" font-size="10.00" fill="#767676">&gt;=5.2.0</text>
</g>
<!-- zendframework/zendframework1 -->
<g id="node7" class="node"><title>zendframework/zendframework1</title>
<path fill="#eeeeee" stroke="black" d="M527,-119C527,-119 303,-119 303,-119 297,-119 291,-113 291,-107 291,-107 291,-95 291,-95 291,-89 297,-83 303,-83 303,-83 527,-83 527,-83 533,-83 539,-89 539,-95 539,-95 539,-107 539,-107 539,-113 533,-119 527,-119"/>
<text text-anchor="middle" x="415" y="-97.3" font-family="Times New Roman,serif" font-size="14.00" fill="#314b5f">zendframework/zendframework1: 1.12.17</text>
</g>
<!-- zendframework/zendframework1&#45;&gt;php -->
<g id="edge6" class="edge"><title>zendframework/zendframework1&#45;&gt;php</title>
<path fill="none" stroke="#1a2833" d="M392.52,-82.822C377.061,-71.009 356.347,-55.1805 339.416,-42.2423"/>
<polygon fill="#1a2833" stroke="#1a2833" points="341.518,-39.444 331.447,-36.1533 337.268,-45.006 341.518,-39.444"/>
<text text-anchor="middle" x="386" y="-57" font-family="Times New Roman,serif" font-size="10.00" fill="#767676">&gt;=5.2.11</text>
</g>
<!-- zendframework/zf1&#45;extras -->
<g id="node8" class="node"><title>zendframework/zf1&#45;extras</title>
<path fill="#eeeeee" stroke="black" d="M607.5,-227C607.5,-227 422.5,-227 422.5,-227 416.5,-227 410.5,-221 410.5,-215 410.5,-215 410.5,-203 410.5,-203 410.5,-197 416.5,-191 422.5,-191 422.5,-191 607.5,-191 607.5,-191 613.5,-191 619.5,-197 619.5,-203 619.5,-203 619.5,-215 619.5,-215 619.5,-221 613.5,-227 607.5,-227"/>
<text text-anchor="middle" x="515" y="-205.3" font-family="Times New Roman,serif" font-size="14.00" fill="#314b5f">zendframework/zf1&#45;extras: 1.12.16</text>
</g>
<!-- zendframework/zf1&#45;extras&#45;&gt;php -->
<g id="edge7" class="edge"><title>zendframework/zf1&#45;extras&#45;&gt;php</title>
<path fill="none" stroke="#1a2833" d="M527.912,-190.828C545.699,-164.914 572.87,-115.406 548,-83 523.525,-51.1092 407.078,-31.6395 346.232,-23.4755"/>
<polygon fill="#1a2833" stroke="#1a2833" points="346.627,-19.9975 336.258,-22.1719 345.72,-26.9385 346.627,-19.9975"/>
<text text-anchor="middle" x="576" y="-98.5" font-family="Times New Roman,serif" font-size="10.00" fill="#767676">&gt;=5.2.11</text>
</g>
<!-- zendframework/zf1&#45;extras&#45;&gt;zendframework/zendframework1 -->
<g id="edge8" class="edge"><title>zendframework/zf1&#45;extras&#45;&gt;zendframework/zendframework1</title>
<path fill="none" stroke="#1a2833" d="M498.933,-190.969C482.557,-173.61 456.984,-146.503 438.367,-126.769"/>
<polygon fill="#1a2833" stroke="#1a2833" points="440.767,-124.213 431.359,-119.341 435.675,-129.016 440.767,-124.213"/>
<text text-anchor="middle" x="492" y="-152.5" font-family="Times New Roman,serif" font-size="10.00" fill="#767676">1.12.*</text>
</g>
<!-- oyejorge/less.php -->
<g id="node9" class="node"><title>oyejorge/less.php</title>
<path fill="#eeeeee" stroke="black" d="M751.5,-173C751.5,-173 602.5,-173 602.5,-173 596.5,-173 590.5,-167 590.5,-161 590.5,-161 590.5,-149 590.5,-149 590.5,-143 596.5,-137 602.5,-137 602.5,-137 751.5,-137 751.5,-137 757.5,-137 763.5,-143 763.5,-149 763.5,-149 763.5,-161 763.5,-161 763.5,-167 757.5,-173 751.5,-173"/>
<text text-anchor="middle" x="677" y="-151.3" font-family="Times New Roman,serif" font-size="14.00" fill="#314b5f">oyejorge/less.php: v1.7.0.10</text>
</g>
<!-- oyejorge/less.php&#45;&gt;php -->
<g id="edge10" class="edge"><title>oyejorge/less.php&#45;&gt;php</title>
<path fill="none" stroke="#1a2833" d="M667.367,-136.778C653.397,-113.621 625.179,-73.1467 589,-54 547.694,-32.1399 412.431,-23.4231 346.205,-20.4007"/>
<polygon fill="#1a2833" stroke="#1a2833" points="346.337,-16.9032 336.193,-19.9634 346.031,-23.8966 346.337,-16.9032"/>
<text text-anchor="middle" x="667" y="-98.5" font-family="Times New Roman,serif" font-size="10.00" fill="#767676">&gt;=5.3</text>
</g>
<!-- phpoffice/phpexcel&#45;&gt;php -->
<g id="edge13" class="edge"><title>phpoffice/phpexcel&#45;&gt;php</title>
<path fill="none" stroke="#1a2833" d="M143.034,-273.705C128.535,-253.52 109.581,-219.296 122,-191 152.829,-120.758 228.069,-66.5755 273.154,-39.0486"/>
<polygon fill="#1a2833" stroke="#1a2833" points="274.966,-42.0429 281.747,-33.9018 271.369,-36.0377 274.966,-42.0429"/>
<text text-anchor="middle" x="170.5" y="-152.5" font-family="Times New Roman,serif" font-size="10.00" fill="#767676">&gt;=5.2.0</text>
</g>
<!-- ext&#45;xml -->
<g id="node11" class="node"><title>ext&#45;xml</title>
<path fill="#eeeeee" stroke="black" d="M177,-227C177,-227 143,-227 143,-227 137,-227 131,-221 131,-215 131,-215 131,-203 131,-203 131,-197 137,-191 143,-191 143,-191 177,-191 177,-191 183,-191 189,-197 189,-203 189,-203 189,-215 189,-215 189,-221 183,-227 177,-227"/>
<text text-anchor="middle" x="160" y="-205.3" font-family="Times New Roman,serif" font-size="14.00" fill="#314b5f">ext&#45;xml</text>
</g>
<!-- phpoffice/phpexcel&#45;&gt;ext&#45;xml -->
<g id="edge11" class="edge"><title>phpoffice/phpexcel&#45;&gt;ext&#45;xml</title>
<path fill="none" stroke="#1a2833" d="M157.636,-273.822C158.03,-263.19 158.544,-249.306 158.992,-237.204"/>
<polygon fill="#1a2833" stroke="#1a2833" points="162.492,-237.276 159.365,-227.153 155.497,-237.017 162.492,-237.276"/>
<text text-anchor="middle" x="162" y="-248" font-family="Times New Roman,serif" font-size="10.00" fill="#767676">*</text>
</g>
<!-- ext&#45;xmlwriter -->
<g id="node12" class="node"><title>ext&#45;xmlwriter</title>
<path fill="#eeeeee" stroke="black" d="M284.5,-227C284.5,-227 219.5,-227 219.5,-227 213.5,-227 207.5,-221 207.5,-215 207.5,-215 207.5,-203 207.5,-203 207.5,-197 213.5,-191 219.5,-191 219.5,-191 284.5,-191 284.5,-191 290.5,-191 296.5,-197 296.5,-203 296.5,-203 296.5,-215 296.5,-215 296.5,-221 290.5,-227 284.5,-227"/>
<text text-anchor="middle" x="252" y="-205.3" font-family="Times New Roman,serif" font-size="14.00" fill="#314b5f">ext&#45;xmlwriter</text>
</g>
<!-- phpoffice/phpexcel&#45;&gt;ext&#45;xmlwriter -->
<g id="edge12" class="edge"><title>phpoffice/phpexcel&#45;&gt;ext&#45;xmlwriter</title>
<path fill="none" stroke="#1a2833" d="M177.147,-273.822C190.75,-262.224 208.893,-246.755 223.91,-233.951"/>
<polygon fill="#1a2833" stroke="#1a2833" points="226.543,-236.305 231.882,-227.153 222.002,-230.978 226.543,-236.305"/>
<text text-anchor="middle" x="214" y="-248" font-family="Times New Roman,serif" font-size="10.00" fill="#767676">*</text>
</g>
<!-- magnafacta/mutil&#45;&gt;php -->
<g id="edge16" class="edge"><title>magnafacta/mutil&#45;&gt;php</title>
<path fill="none" stroke="#1a2833" d="M395.843,-274C364.111,-245.725 303.872,-185.526 282,-119 273.854,-94.224 283.604,-65.4252 293.587,-45.1136"/>
<polygon fill="#1a2833" stroke="#1a2833" points="296.741,-46.6345 298.277,-36.1516 290.539,-43.3886 296.741,-46.6345"/>
<text text-anchor="middle" x="322.5" y="-152.5" font-family="Times New Roman,serif" font-size="10.00" fill="#767676">&gt;=5.3.9</text>
</g>
<!-- magnafacta/mutil&#45;&gt;zendframework/zendframework1 -->
<g id="edge17" class="edge"><title>magnafacta/mutil&#45;&gt;zendframework/zendframework1</title>
<path fill="none" stroke="#1a2833" d="M403.128,-273.856C394.718,-261.537 384.49,-244.142 380,-227 371.037,-192.784 386.22,-153.539 399.31,-128.292"/>
<polygon fill="#1a2833" stroke="#1a2833" points="402.475,-129.799 404.17,-119.341 396.323,-126.459 402.475,-129.799"/>
<text text-anchor="middle" x="390.5" y="-206.5" font-family="Times New Roman,serif" font-size="10.00" fill="#767676">^1.12</text>
</g>
<!-- magnafacta/mutil&#45;&gt;zendframework/zf1&#45;extras -->
<g id="edge18" class="edge"><title>magnafacta/mutil&#45;&gt;zendframework/zf1&#45;extras</title>
<path fill="none" stroke="#1a2833" d="M436.995,-273.822C451.302,-262.116 470.428,-246.468 486.161,-233.596"/>
<polygon fill="#1a2833" stroke="#1a2833" points="488.512,-236.195 494.035,-227.153 484.079,-230.777 488.512,-236.195"/>
<text text-anchor="middle" x="482.5" y="-248" font-family="Times New Roman,serif" font-size="10.00" fill="#767676">^1.12</text>
</g>
<!-- magnafacta/mutil&#45;&gt;oyejorge/less.php -->
<g id="edge15" class="edge"><title>magnafacta/mutil&#45;&gt;oyejorge/less.php</title>
<path fill="none" stroke="#1a2833" d="M488.667,-281.445C532.326,-272.856 587.147,-256.783 628,-227 643.835,-215.456 656.284,-197.165 664.671,-182.039"/>
<polygon fill="#1a2833" stroke="#1a2833" points="667.805,-183.599 669.362,-173.119 661.609,-180.341 667.805,-183.599"/>
<text text-anchor="middle" x="611.5" y="-248" font-family="Times New Roman,serif" font-size="10.00" fill="#767676">~1.7.0.9</text>
</g>
<!-- magnafacta/mutil&#45;&gt;ext&#45;mcrypt -->
<g id="edge14" class="edge"><title>magnafacta/mutil&#45;&gt;ext&#45;mcrypt</title>
<path fill="none" stroke="#1a2833" d="M488.665,-287.212C555.186,-282.702 647.991,-273.473 680,-256 688.908,-251.137 696.662,-243.361 702.859,-235.576"/>
<polygon fill="#1a2833" stroke="#1a2833" points="705.864,-237.396 708.952,-227.261 700.218,-233.258 705.864,-237.396"/>
<text text-anchor="middle" x="698" y="-248" font-family="Times New Roman,serif" font-size="10.00" fill="#767676">*</text>
</g>
</g>
</svg>
